<?xml version="1.0" standalone="no"?><!DOCTYPE svg PUBLIC "-//W3C//DTD SVG 1.1//EN" "http://www.w3.org/Graphics/SVG/1.1/DTD/svg11.dtd"><svg t="1615547711585" class="icon" viewBox="0 0 1024 1024" version="1.1" xmlns="http://www.w3.org/2000/svg" p-id="1382" xmlns:xlink="http://www.w3.org/1999/xlink" width="200" height="200"><defs><style type="text/css"></style></defs><path d="M242 339.2c27.9 91.4 89 187.5 172.1 270.7S593.3 754.1 684.8 782c101 30.8 186.1 18.2 239.8-35.5 53.7-53.7 66.3-138.8 35.5-239.8-27.9-91.4-89-187.5-172.1-270.7S608.7 91.8 517.3 64c-101-30.8-186.1-18.2-239.8 35.5S211.2 238.3 242 339.2z" fill="#6D4C41" p-id="1383"></path><path d="M445.233145 578.784949a413.5 220.3 44.999 1 0 311.545811-311.556685 413.5 220.3 44.999 1 0-311.545811 311.556685Z" fill="#CFD8DC" p-id="1384"></path><path d="M397.3 626.7c-85.8-85.8-149-185.4-178-280.5-33.4-109.7-18.7-203.3 41.4-263.5S414.4 7.8 524.2 41.3c95.1 29 194.7 92.2 280.5 178s149 185.4 178 280.5c33.4 109.7 18.7 203.3-41.4 263.5-60.2 60.2-153.7 74.9-263.5 41.4-95-29-194.7-92.2-280.5-178z m311.6-311.6C557.4 163.7 401.6 133.5 356.6 178.6s-14.8 200.8 136.6 352.3 307.2 181.6 352.3 136.6c45-45.1 14.8-200.9-136.6-352.4z" fill="#FAFAFA" p-id="1385"></path><path d="M670.9 827.4C572.2 797.3 469 732 380.5 643.5S226.7 451.8 196.6 353.1c-35.8-117.5-19.5-218.7 45.7-285.4-2.6 2.6-5.3 5.2-7.9 7.8-281.1 281.1-301.2 620.9-104 818.1s537 177.1 818.1-104c2.6-2.6 5.2-5.3 7.8-7.9-66.7 65.2-167.9 81.5-285.4 45.7z" fill="#6D4C41" p-id="1386"></path><path d="M243.9 65.9c-0.6 0.6-1.1 1.2-1.7 1.8 1.5-1.5 3-3 4.5-4.4-0.8 0.9-1.8 1.7-2.8 2.6zM958.1 780.1c0.9-0.9 1.7-1.9 2.6-2.8-1.5 1.5-2.9 3-4.4 4.5 0.6-0.7 1.2-1.2 1.8-1.7zM196.6 353.1C226.7 451.8 292 555 380.5 643.5s191.6 153.8 290.4 183.9c117.5 35.8 218.7 19.5 285.3-45.7 1.5-1.5 3-3 4.4-4.5 64.4-66.7 80.4-167.4 44.7-284.3-30-98.7-95.3-201.9-183.8-290.4S629.8 48.7 531.1 18.6C414.2-17 313.5-1.1 246.8 63.3c-1.5 1.5-3 2.9-4.5 4.4-65.2 66.7-81.5 167.9-45.7 285.4zM517.3 64c91.4 27.9 187.6 89 270.7 172.1s144.2 179.2 172 270.6c30.8 101 18.2 186.1-35.5 239.8-53.7 53.7-138.8 66.3-239.8 35.5-91.4-27.9-187.6-89-270.7-172.1S269.9 430.7 242 339.2c-30.8-101-18.2-186.1 35.5-239.8S416.3 33.2 517.3 64z" fill="#8D6E63" p-id="1387"></path></svg>