<?xml version="1.0" standalone="no"?><!DOCTYPE svg PUBLIC "-//W3C//DTD SVG 1.1//EN" "http://www.w3.org/Graphics/SVG/1.1/DTD/svg11.dtd"><svg t="1615547754706" class="icon" viewBox="0 0 1024 1024" version="1.1" xmlns="http://www.w3.org/2000/svg" p-id="914" xmlns:xlink="http://www.w3.org/1999/xlink" width="200" height="200"><defs><style type="text/css"></style></defs><path d="M803.482 912.128H227.226c-90.317 0-163.84-73.523-163.84-163.84v-78.182c0-24.27 15.564-45.517 38.707-52.839 45.977-14.643 76.851-56.934 76.851-105.216 0-48.281-30.874-90.573-76.902-105.216a55.327 55.327 0 0 1-38.708-52.838v-74.803c0-90.317 73.524-163.84 163.84-163.84h576.308c90.316 0 163.84 73.523 163.84 163.84v72.345c0 25.088-17.152 47.207-41.677 53.76-48.18 12.851-81.869 56.73-81.869 106.701s33.638 93.798 81.869 106.7c24.576 6.554 41.677 28.673 41.677 53.76v75.828c0 90.317-73.472 163.84-163.84 163.84zM124.826 674.406v73.882c0 56.474 45.926 102.4 102.4 102.4h576.307c56.473 0 102.4-45.926 102.4-102.4v-71.322C832.973 655.667 782.387 588.39 782.387 512c0-76.39 50.586-143.616 123.546-164.966v-67.84c0-56.474-45.927-102.4-102.4-102.4H227.226c-56.474 0-102.4 45.926-102.4 102.4v70.4C194.099 373.555 240.384 438.272 240.384 512c0 73.728-46.285 138.445-115.558 162.406z m784.947 3.636z" fill="#424242" p-id="915"></path><path d="M649.677 441.498h-265.37c-16.947 0-30.72-13.773-30.72-30.72s13.773-30.72 30.72-30.72h265.37c16.947 0 30.72 13.772 30.72 30.72s-13.773 30.72-30.72 30.72z m0 218.316h-265.37c-16.947 0-30.72-13.772-30.72-30.72s13.773-30.72 30.72-30.72h265.37c16.947 0 30.72 13.773 30.72 30.72s-13.773 30.72-30.72 30.72z" fill="#F8B62D" p-id="916"></path></svg>