<?xml version="1.0" standalone="no"?><!DOCTYPE svg PUBLIC "-//W3C//DTD SVG 1.1//EN" "http://www.w3.org/Graphics/SVG/1.1/DTD/svg11.dtd"><svg t="1615547828669" class="icon" viewBox="0 0 1024 1024" version="1.1" xmlns="http://www.w3.org/2000/svg" p-id="812" xmlns:xlink="http://www.w3.org/1999/xlink" width="200" height="200"><defs><style type="text/css"></style></defs><path d="M506.854271 512m-113.720603 0a113.720603 113.720603 0 1 0 227.441206 0 113.720603 113.720603 0 1 0-227.441206 0Z" fill="#F9BBB8" p-id="813"></path><path d="M848.01608 0H175.98392A175.98392 175.98392 0 0 0 0 175.98392v672.03216a175.98392 175.98392 0 0 0 175.98392 175.98392h672.03216a175.98392 175.98392 0 0 0 175.98392-175.98392V175.98392A175.98392 175.98392 0 0 0 848.01608 0zM514.572864 743.557789a231.557789 231.557789 0 1 1 231.557789-231.557789 231.557789 231.557789 0 0 1-231.557789 231.557789z m298.966834-491.417085a51.457286 51.457286 0 1 1 51.457287-51.457287 51.457286 51.457286 0 0 1-51.457287 51.457287z" fill="#F55E55" p-id="814"></path></svg>