<?xml version="1.0" standalone="no"?><!DOCTYPE svg PUBLIC "-//W3C//DTD SVG 1.1//EN" "http://www.w3.org/Graphics/SVG/1.1/DTD/svg11.dtd"><svg t="1615547688199" class="icon" viewBox="0 0 1024 1024" version="1.1" xmlns="http://www.w3.org/2000/svg" p-id="1242" xmlns:xlink="http://www.w3.org/1999/xlink" width="200" height="200"><defs><style type="text/css"></style></defs><path d="M211.797415 28.999646c-2.799966 2.699967-5.899928 5.099938-8.699894 7.899904-216.497357 216.497357-216.497357 567.493073 0 783.990429s567.493073 216.497357 783.99043 0c2.799966-2.799966 5.099938-5.899928 7.899903-8.699893L211.797415 28.999646z" fill="#E6EE9C" p-id="1243"></path><path d="M299.496344 116.698575c-2.199973 2.099974-4.599944 3.899952-6.799917 6.099926-167.997949 167.997949-167.997949 440.494623 0 608.492572s440.494623 167.997949 608.492572 0c2.199973-2.199973 3.999951-4.499945 6.099926-6.799917L299.496344 116.698575z" fill="#FF5252" p-id="1244"></path><path d="M965.888209 783.090441c-2.699967 2.799966-5.099938 5.899928-7.899903 8.699894-200.097557 200.097557-525.793582 200.097557-725.891139 0S31.999609 265.996753 232.097167 65.899196c2.799966-2.799966 5.899928-5.099938 8.699894-7.899904l-57.999292-57.999292c-2.799966 2.699967-5.899928 5.099938-8.699894 7.899904C-57.999292 239.99707-57.999292 617.69246 174.097875 849.889625s609.892555 232.097167 841.989722 0c2.799966-2.799966 5.099938-5.899928 7.899903-8.699893l-58.099291-58.099291z" fill="#4CAF50" p-id="1245"></path><path d="M307.596245 310.696207c-0.999988 0.999988-1.899977 1.999976-2.699967 2.999964-18.599773 22.199729-7.199912 56.49931 20.299752 65.699198l20.099755 6.699918L401.995093 404.995056l-18.899769-56.699308-6.699919-20.099754c-9.199888-27.499664-43.39947-38.799526-65.699198-20.299752-1.199985 0.899989-2.199973 1.799978-3.099962 2.799965zM278.696598 474.694205c0 1.399983 0.099999 2.699967 0.199998 3.999952 2.599968 28.899647 34.899574 45.099449 60.799257 32.099608l18.89977-9.499884 53.399348-26.699674-53.399348-26.599676-18.89977-9.499884c-25.899684-12.999841-58.19929 3.29996-60.799257 32.099608-0.199998 1.399983-0.199998 2.799966-0.199998 4.09995zM385.595293 638.692203c0.999988 0.999988 1.999976 1.899977 2.999963 2.699968 22.199729 18.599773 56.49931 7.199912 65.699198-20.299753L460.994373 600.992664l18.899769-56.699308-56.699308 18.899769-20.099755 6.699918c-27.499664 9.199888-38.799526 43.39947-20.299752 65.699198 0.999988 1.099987 1.899977 2.099974 2.799966 3.099962zM549.69329 745.290902c1.399983 0 2.699967-0.099999 3.999951-0.199997 28.899647-2.599968 45.099449-34.899574 32.099608-60.799258l-9.499884-18.899769-26.599675-53.399349-26.699674 53.399349-9.499884 18.899769c-12.999841 25.899684 3.29996 58.19929 32.099608 60.799258 1.399983 0.199998 2.699967 0.199998 4.09995 0.199997zM713.591289 716.091259c0.999988-0.999988 1.899977-1.999976 2.699967-2.999964 18.599773-22.199729 7.199912-56.49931-20.299752-65.699198l-20.099755-6.699918-56.699308-18.899769 18.89977 56.699308 6.699918 20.099754c9.199888 27.499664 43.39947 38.799526 65.699198 20.299752 1.199985-0.899989 2.199973-1.799978 3.099962-2.799965z" fill="#5D4037" p-id="1246"></path></svg>